<svg xmlns="http://www.w3.org/2000/svg" viewBox="0 0 638.72 321.79"><path fill="#2fa0da" d="M638.72,242h0V189.07h-21V242a34.94,34.94,0,1,1-69.87,0h0V189.07h-21V242h0a55.88,55.88,0,0,0,90.83,43.62v12.28a21.42,21.42,0,0,1-5,13.74l18.32,10.16a41.25,41.25,0,0,0,7.6-23.9h0Z"/><rect fill="#2fa0da" x="460.55" y="168.11" width="20.96" height="125.77"/><path fill="#2fa0da" d="M407.74,228.11l18.91-6.87a54.15,54.15,0,0,0-105,18.48v54.15h20.11V239.73h0a34,34,0,0,1,66-11.61Z"/><path fill="#2fa0da" d="M252.24,31.42S222.41,106.7,129.61,84c0,0,82.71-10.5,114.66-58.21A157.78,157.78,0,0,0,2.62,129C86.89,7.05,190.35,42.9,190.35,42.9,86.18,58.11,2.88,149.87.08,153c0,1.58-.08,3.17-.08,4.77A157.78,157.78,0,0,0,237.6,293.83V189.07h21v90a157.77,157.77,0,0,0-6.33-247.68ZM192.19,241.48v52.39h-21v-8.78a55.89,55.89,0,1,1,21-43.67h0v0h0Zm55.9-61.15a12.23,12.23,0,1,1,12.23-12.23A12.22,12.22,0,0,1,248.09,180.33Zm15.71-30.89a3.87,3.87,0,0,1-4.87-.45l-.54-.5a16.23,16.23,0,0,0-20.61,0l-.54.5a3.87,3.87,0,0,1-4.87.45,3.92,3.92,0,0,1-.56-6.07,23.85,23.85,0,0,1,32.56,0A3.92,3.92,0,0,1,263.8,149.44Zm11.64-10h0a3.88,3.88,0,0,1-5.12-.69,28.34,28.34,0,0,0-2.87-2.93,29.22,29.22,0,0,0-38.69,0,29.4,29.4,0,0,0-2.87,2.93,3.88,3.88,0,0,1-5.12.69h0a3.9,3.9,0,0,1-.86-5.75,37.07,37.07,0,0,1,56.42,0A3.91,3.91,0,0,1,275.44,139.48Zm14.65-7.61,0,0a3.86,3.86,0,0,1-5.17-.79,46.59,46.59,0,0,0-5.75-6.08,46.89,46.89,0,0,0-67.87,6.08,3.86,3.86,0,0,1-5.17.79l0,0a3.92,3.92,0,0,1-.9-5.7,55,55,0,0,1,85.8,0A3.94,3.94,0,0,1,290.09,131.87Z"/><circle fill="#2fa0da" cx="136.29" cy="242.01" r="34.94" transform="translate(-43.31 30.14) rotate(-10.9)"/></svg>
